<svg width="41" height="41" viewBox="0 0 41 41" fill="none" xmlns="http://www.w3.org/2000/svg">
<circle cx="20.5" cy="20.5" r="20.5" fill="#0E0221"/>
<path d="M5 20H36" stroke="white" stroke-opacity="0.74" stroke-width="0.5" stroke-linecap="round"/>
<path d="M20 36V5" stroke="white" stroke-opacity="0.74" stroke-width="0.5" stroke-linecap="round"/>
<path d="M12.376 30.384H13.456C13.7493 30.384 14.024 30.3467 14.28 30.272C14.5413 30.1973 14.768 30.0773 14.96 29.912C15.1573 29.7413 15.312 29.52 15.424 29.248C15.536 28.976 15.592 28.6453 15.592 28.256C15.592 27.8933 15.5413 27.5813 15.44 27.32C15.3387 27.0533 15.1947 26.8347 15.008 26.664C14.8267 26.4933 14.6027 26.368 14.336 26.288C14.0747 26.2027 13.7813 26.16 13.456 26.16H12.376V30.384ZM11.704 25.544H13.456C13.888 25.544 14.2773 25.5973 14.624 25.704C14.976 25.8107 15.2773 25.976 15.528 26.2C15.7787 26.424 15.9707 26.7067 16.104 27.048C16.2427 27.3893 16.312 27.792 16.312 28.256C16.312 28.7253 16.2373 29.1333 16.088 29.48C15.9387 29.8213 15.736 30.1067 15.48 30.336C15.224 30.56 14.9227 30.728 14.576 30.84C14.2293 30.9467 13.856 31 13.456 31H11.704V25.544Z" fill="white" fill-opacity="0.74"/>
<path d="M25.376 30.384H26.456C26.7493 30.384 27.024 30.3467 27.28 30.272C27.5413 30.1973 27.768 30.0773 27.96 29.912C28.1573 29.7413 28.312 29.52 28.424 29.248C28.536 28.976 28.592 28.6453 28.592 28.256C28.592 27.8933 28.5413 27.5813 28.44 27.32C28.3387 27.0533 28.1947 26.8347 28.008 26.664C27.8267 26.4933 27.6027 26.368 27.336 26.288C27.0747 26.2027 26.7813 26.16 26.456 26.16H25.376V30.384ZM24.704 25.544H26.456C26.888 25.544 27.2773 25.5973 27.624 25.704C27.976 25.8107 28.2773 25.976 28.528 26.2C28.7787 26.424 28.9707 26.7067 29.104 27.048C29.2427 27.3893 29.312 27.792 29.312 28.256C29.312 28.7253 29.2373 29.1333 29.088 29.48C28.9387 29.8213 28.736 30.1067 28.48 30.336C28.224 30.56 27.9227 30.728 27.576 30.84C27.2293 30.9467 26.856 31 26.456 31H24.704V25.544Z" fill="white" fill-opacity="0.74"/>
<path d="M14.496 11.296C14.368 11.264 14.2347 11.2347 14.096 11.208C13.9733 11.1813 13.832 11.16 13.672 11.144C13.5173 11.1227 13.3547 11.112 13.184 11.112C12.7893 11.112 12.5067 11.1733 12.336 11.296C12.1653 11.4133 12.08 11.5973 12.08 11.848C12.0853 12.0453 12.1573 12.2133 12.296 12.352C12.4347 12.4853 12.608 12.6107 12.816 12.728C13.024 12.84 13.2507 12.952 13.496 13.064C13.7467 13.1707 13.976 13.296 14.184 13.44C14.392 13.5787 14.5653 13.744 14.704 13.936C14.848 14.1227 14.92 14.352 14.92 14.624C14.92 14.9387 14.8507 15.192 14.712 15.384C14.5787 15.576 14.408 15.7253 14.2 15.832C13.992 15.9387 13.7627 16.0107 13.512 16.048C13.2667 16.0853 13.032 16.104 12.808 16.104C12.5947 16.104 12.4 16.0907 12.224 16.064C12.048 16.0373 11.896 16.008 11.768 15.976C11.6187 15.9387 11.4827 15.896 11.36 15.848L11.52 15.2C11.6427 15.2533 11.7733 15.2987 11.912 15.336C12.0347 15.368 12.1707 15.3973 12.32 15.424C12.4747 15.4507 12.6373 15.464 12.808 15.464C13.016 15.464 13.2053 15.4507 13.376 15.424C13.552 15.3973 13.704 15.3547 13.832 15.296C13.96 15.2373 14.0587 15.16 14.128 15.064C14.2027 14.968 14.24 14.8507 14.24 14.712C14.2347 14.504 14.1653 14.336 14.032 14.208C13.904 14.0747 13.7307 13.9493 13.512 13.832C13.2987 13.7093 13.0667 13.592 12.816 13.48C12.5707 13.368 12.344 13.24 12.136 13.096C11.928 12.952 11.752 12.7813 11.608 12.584C11.4693 12.3867 11.4 12.1413 11.4 11.848C11.4 11.6773 11.4293 11.5093 11.488 11.344C11.5467 11.1787 11.6453 11.032 11.784 10.904C11.928 10.776 12.112 10.672 12.336 10.592C12.5653 10.512 12.848 10.472 13.184 10.472C13.376 10.472 13.5573 10.4827 13.728 10.504C13.904 10.52 14.056 10.5387 14.184 10.56C14.3333 10.5867 14.4747 10.616 14.608 10.648L14.496 11.296Z" fill="white" fill-opacity="0.74"/>
<path d="M24.704 10.544H25.96C26.6533 10.544 27.1653 10.6667 27.496 10.912C27.832 11.1573 28 11.5707 28 12.152C28 12.472 27.9387 12.7387 27.816 12.952C27.6933 13.1653 27.5387 13.3387 27.352 13.472C27.1707 13.6 26.9733 13.6933 26.76 13.752C26.5467 13.8053 26.3493 13.832 26.168 13.832H25.376V16H24.704V10.544ZM25.376 13.232H26.112C26.2933 13.232 26.456 13.216 26.6 13.184C26.7493 13.1467 26.8773 13.088 26.984 13.008C27.0907 12.9227 27.1733 12.8107 27.232 12.672C27.2907 12.528 27.32 12.3493 27.32 12.136C27.32 11.9227 27.288 11.752 27.224 11.624C27.1653 11.4907 27.0747 11.3893 26.952 11.32C26.8347 11.2507 26.6853 11.2053 26.504 11.184C26.3227 11.1573 26.112 11.144 25.872 11.144H25.376V13.232Z" fill="white" fill-opacity="0.74"/>
</svg>
